<svg id="Capa_1" data-name="Capa 1" xmlns="http://www.w3.org/2000/svg" viewBox="0 0 179.91 38.85"><defs><style>.cls-1,.cls-2{fill:#ffff0d;}.cls-2{font-size:27.53px;font-family:Anton-Regular, Anton;}.cls-3{letter-spacing:-0.03em;}</style></defs><title>logocharly</title><polygon class="cls-1" points="0 32.22 17.25 38.85 33.77 31.91 29.71 0 19.97 11.88 13.98 11.89 3.85 0 0 32.22"/><circle cx="24.96" cy="23.91" r="3.67"/><ellipse class="cls-1" cx="24.96" cy="23.91" rx="1.14" ry="2.3"/><circle cx="9.1" cy="23.91" r="3.67"/><ellipse class="cls-1" cx="9.1" cy="23.91" rx="1.14" ry="2.3"/><path d="M27.26,44.06a2.7,2.7,0,0,0-2.5-1.2,5.15,5.15,0,0,0-3,1.52,3.65,3.65,0,0,1-1.93,1,3.11,3.11,0,0,1-1.52-.49s-.32-.21-.22.33c.75,3.92,7,4,8.74,2.39A2.74,2.74,0,0,0,27.26,44.06Z" transform="translate(-11.04 -14.59)"/><text class="cls-2" transform="translate(40.4 29.85)">CHAR<tspan class="cls-3" x="53.28" y="0">L</tspan><tspan x="63.36" y="0">YSHOES</tspan></text></svg>